<svg xmlns="http://www.w3.org/2000/svg" viewBox="0 0 24 24" fill="none" stroke="#4A6CF7" stroke-width="1.5" stroke-linecap="round" stroke-linejoin="round">
  <path d="M12 2a7 7 0 0 1 7 7c0 2.38-1.19 4.47-3 5.74V17a2 2 0 0 1-2 2h-4a2 2 0 0 1-2-2v-2.26C6.19 13.47 5 11.38 5 9a7 7 0 0 1 7-7z"/>
  <path d="M9 21h6M10 17v4M14 17v4"/>
  <circle cx="10" cy="9" r="1" fill="#4A6CF7"/>
  <circle cx="14" cy="9" r="1" fill="#4A6CF7"/>
  <circle cx="12" cy="12" r="1" fill="#4A6CF7"/>
  <path d="M10 9l2 3M14 9l-2 3"/>
</svg>
